<svg width="22" height="22" viewBox="0 0 22 22" fill="none" xmlns="http://www.w3.org/2000/svg">
<path d="M20.1875 9.6875H12.3125V1.8125C12.3125 1.025 11.7875 0.5 11 0.5C10.2125 0.5 9.6875 1.025 9.6875 1.8125V9.6875H1.8125C1.025 9.6875 0.5 10.2125 0.5 11C0.5 11.7875 1.025 12.3125 1.8125 12.3125H9.6875V20.1875C9.6875 20.975 10.2125 21.5 11 21.5C11.7875 21.5 12.3125 20.975 12.3125 20.1875V12.3125H20.1875C20.975 12.3125 21.5 11.7875 21.5 11C21.5 10.2125 20.975 9.6875 20.1875 9.6875Z" fill="white"/>
</svg>
