<svg width="61" height="61" viewBox="0 0 61 61" fill="none" xmlns="http://www.w3.org/2000/svg">
<path d="M48.8723 45.9946H12.0028C10.6037 45.9946 9.46948 47.4045 9.46948 49.1437V50.9622C9.46948 52.7014 10.6037 54.1113 12.0028 54.1113H48.8723C50.2714 54.1113 51.4056 52.7014 51.4056 50.9622V49.1437C51.4056 47.4045 50.2714 45.9946 48.8723 45.9946Z" fill="#ED8A19"/>
<path fill-rule="evenodd" clip-rule="evenodd" d="M7.91742 20.4453C6.69328 20.4815 5.28249 20.4654 4.05835 20.503C4.97645 24.651 9.23163 44.58 12.9149 44.6417C25.0098 44.6364 34.7215 44.6431 46.8174 44.6377C50.3997 44.737 54.159 29.286 56.8167 20.5285C55.5795 20.5419 53.9289 20.5285 52.6917 20.5405C49.8083 25.4249 46.774 27.914 44.4071 28.1098C40.1573 28.4625 35.5658 19.4837 32.6725 13.5278C31.2628 13.5573 29.6903 13.5627 27.8813 13.5359C25.0108 18.7501 21.956 27.9636 16.9097 28.1098C14.4658 28.1795 10.9756 26.019 7.91742 20.4453Z" fill="#ED8A19"/>
<path d="M4.53916 23.1579C7.04607 23.1579 9.07831 21.1257 9.07831 18.6188C9.07831 16.1118 7.04607 14.0796 4.53916 14.0796C2.03225 14.0796 0 16.1118 0 18.6188C0 21.1257 2.03225 23.1579 4.53916 23.1579Z" fill="#ED8A19"/>
<path d="M30.1697 14.4894C32.6766 14.4894 34.7088 12.4572 34.7088 9.95028C34.7088 7.44338 32.6766 5.41113 30.1697 5.41113C27.6627 5.41113 25.6305 7.44338 25.6305 9.95028C25.6305 12.4572 27.6627 14.4894 30.1697 14.4894Z" fill="#ED8A19"/>
<path d="M56.3358 23.1579C58.8427 23.1579 60.8749 21.1257 60.8749 18.6188C60.8749 16.1118 58.8427 14.0796 56.3358 14.0796C53.8289 14.0796 51.7966 16.1118 51.7966 18.6188C51.7966 21.1257 53.8289 23.1579 56.3358 23.1579Z" fill="#ED8A19"/>
</svg>
