<svg width="20" height="16" viewBox="0 0 20 16" fill="none" xmlns="http://www.w3.org/2000/svg">
<path d="M5.75296 0.0126508C5.74367 0.0189756 4.73382 1.14003 3.50714 2.50618C2.282 3.87074 1.14515 5.13727 0.980972 5.3191L0.683594 5.65115L0.762585 5.73812C0.807501 5.78713 0.973228 5.96581 1.13121 6.13499C1.29074 6.30418 2.23863 7.3193 3.23919 8.38818C4.23974 9.45864 6.08286 11.4288 7.33433 12.7681C8.58734 14.1073 9.7784 15.3818 9.98285 15.6015L10.3546 16H10.5946H10.8347L11.3691 15.4276C11.8848 14.8742 13.5096 13.1365 17.9455 8.39451C19.1055 7.15486 20.1557 6.03064 20.2796 5.89624L20.5057 5.65273L20.4623 5.6053C20.4391 5.58 19.3007 4.31189 17.9362 2.79079C16.5701 1.26811 15.4441 0.0189756 15.4363 0.0126508C15.427 0.00632606 13.2478 1.28746e-06 10.5946 1.28746e-06C7.94148 1.28746e-06 5.76225 0.00632606 5.75296 0.0126508Z" fill="#ED8A19"/>
</svg>
