<svg width="23" height="20" viewBox="0 0 23 20" fill="none" xmlns="http://www.w3.org/2000/svg">
    <path fill-rule="evenodd" clip-rule="evenodd"
          d="M10.7967 18.94L16.3267 13.4C16.6967 13.03 16.9067 12.52 16.9067 11.99V2C16.9067 0.9 16.0067 0 14.9067 0H5.91665C5.11665 0 4.39665 0.48 4.08665 1.21L0.826648 8.82C-0.0233525 10.8 1.42665 13 3.57665 13H9.22665L8.27665 17.58C8.17665 18.08 8.32665 18.59 8.68665 18.95C9.27665 19.53 10.2167 19.53 10.7967 18.94ZM20.9166 0C19.8166 0 18.9166 0.9 18.9166 2V10C18.9166 11.1 19.8166 12 20.9166 12C22.0166 12 22.9166 11.1 22.9166 10V2C22.9166 0.9 22.0166 0 20.9166 0Z"
          fill="#FFF"/>
</svg>
