<svg width="47" height="50" viewBox="0 0 47 50" fill="none" xmlns="http://www.w3.org/2000/svg">
<rect x="0.94751" width="46.0526" height="50" rx="2" fill="#ED8A19"/>
<rect x="4.89478" y="3.94751" width="38.1579" height="32.8947" rx="2" fill="#FEAA40"/>
<circle cx="12.7897" cy="10.5263" r="3.94737" fill="#FFC781"/>
<path d="M12.1316 28.2894C11.6053 28.2894 7.52635 33.5526 5.55267 36.1842H4.89478V36.8421V37.5L5.55267 38.1579L6.21056 38.8157H6.86846H7.52635H42.3948L43.0527 26.3157V21.0526C43.0527 21.0526 41.2983 19.0789 39.7632 15.7894L35.1579 21.7105L29.2369 23.6842L25.2895 30.2631L20.6842 27.6315L16.079 32.8947C14.7632 30.7017 12.6579 28.2894 12.1316 28.2894Z" fill="#FFC781"/>
<circle cx="13.5526" cy="36.5526" r="8.55263" fill="#673AB7"/>
<path d="M9.27637 36.5526H17.829" stroke="white" stroke-width="1.5"/>
<circle cx="35.5526" cy="36.5526" r="8.55263" fill="#673AB7"/>
<path d="M30.2073 36.5526H40.8981" stroke="white" stroke-width="1.5"/>
<path d="M35.5527 41.8981L35.5527 31.2073" stroke="white" stroke-width="1.5"/>
</svg>
