<svg width="23" height="20" viewBox="0 0 23 20" fill="none" xmlns="http://www.w3.org/2000/svg">
    <path fill-rule="evenodd" clip-rule="evenodd"
          d="M12.12 1.05997L6.58002 6.59997C6.21002 6.96997 6.00002 7.47997 6.00002 8.00997V18C6.00002 19.1 6.90002 20 8.00002 20H17C17.8 20 18.52 19.52 18.84 18.79L22.1 11.18C22.94 9.19997 21.49 6.99997 19.34 6.99997H13.69L14.64 2.41997C14.74 1.91997 14.59 1.40997 14.23 1.04997C13.64 0.469969 12.7 0.469969 12.12 1.05997ZM2 20C3.1 20 4 19.1 4 18V10C4 8.90004 3.1 8.00004 2 8.00004C0.9 8.00004 0 8.90004 0 10V18C0 19.1 0.9 20 2 20Z"
          fill="#16C2B7"/>
</svg>
