<svg width="61" height="55" viewBox="0 0 61 55" fill="none" xmlns="http://www.w3.org/2000/svg">
<path fill-rule="evenodd" clip-rule="evenodd" d="M32.589 1.34107L39.4737 16.2476C39.8502 17.0213 40.5494 17.4856 41.41 17.5887L58.7294 19.033C59.6975 19.1361 60.4506 19.7035 60.7733 20.5804C61.0422 21.4572 60.7733 22.3856 60.0203 23.0046L47.1114 33.4753C46.4122 34.0427 46.1433 34.868 46.3584 35.7448L50.2311 51.3219C50.4462 52.1988 50.1235 53.0757 49.3705 53.643C48.6175 54.2104 47.6493 54.262 46.7887 53.7978L31.6208 45.4418C30.8678 45.0292 30.0072 45.0292 29.2542 45.4418L14.1401 53.7978C13.3333 54.262 12.3113 54.2104 11.5583 53.643C10.8053 53.0757 10.4826 52.1988 10.6977 51.3219L14.5704 35.7448C14.7855 34.9195 14.5166 34.0427 13.8174 33.4753L0.854727 23.0046C0.101711 22.3856 -0.167228 21.5088 0.101706 20.5804C0.37064 19.7035 1.17744 19.0845 2.14561 19.033L19.465 17.5887C20.3256 17.5371 21.0786 17.0213 21.4013 16.2476L28.286 1.34107C28.6625 0.515794 29.4693 0 30.4375 0C31.4057 0 32.2125 0.515794 32.589 1.34107Z" fill="#ED8A19"/>
</svg>
